<svg xmlns="http://www.w3.org/2000/svg" xmlns:xlink="http://www.w3.org/1999/xlink" width="169" height="36" viewBox="0 0 169 36">
    <defs>
        <path id="a" d="M0 .208h64.586v34.555H0z"/>
        <path id="c" d="M.777.206h7.53v7.541H.778z"/>
    </defs>
    <g fill="none" fill-rule="evenodd">
        <g transform="translate(0 .993)">
            <mask id="b" fill="#fff">
                <use xlink:href="#a"/>
            </mask>
            <path fill="#FFF" d="M19.659 34.665s-16.511-.093-17.776-.093c-1.28 0-1.773.191-1.87-.493-.094-.683.3-.79 1.564-1.374 1.283-.588 9.041-5.69 14.537-12.565 5.491-6.881 10.64-11.725 13.874-16.147C33.232-.425 35.157.015 37.028.507c1.867.486 9.426 3.334 15.512 7.752 6.088 4.416 11 9.036 11.876 14.526.893 5.502-1.87 7.564-5.392 8.734-3.54 1.186-10.905 2.466-14.835 2.854-3.913.39-15.015.39-16.782.39-1.766 0-4.022 0-4.319-.293-.298-.301.494-.978 4.32-2.353 3.822-1.378 8.932-1.87 13.246-2.952 4.33-1.078 8.45-1.471 9.436-5.294.985-3.828-2.355-6.48-2.762-6.975-.384-.49-5.094-5.306-9.124-5.991-4.024-.678-7.163-.78-11.088 5.012-3.93 5.794-5.603 7.954-6.588 12.272-.975 4.31-.388 5.393-.87 6.476" mask="url(#b)"/>
        </g>
        <path fill="#FFF" d="M75.231 24.811v6.384c0 1.154-.942 2.09-2.09 2.09a2.082 2.082 0 0 1-2.082-2.09v-6.384h-4.42v6.86c0 .477.11 3.998 4.592 3.998h3.825c4.482 0 4.59-3.52 4.59-3.998v-6.86h-4.415zM87.838 28.653h-2.637v-1.725h2.637c.47 0 .872.38.872.863a.872.872 0 0 1-.872.862zm3.365 1.97c1.51-.512 2.603-1.47 2.603-3.293 0-2.886-4.388-2.628-4.388-2.628h-8.573V35.61H85.2v-4.127c.258-.03.537-.054.82-.094l3.724 4.22h5.84l-4.382-4.985z"/>
        <path fill="#FFF" d="M100.905 31.275l.875-2.436.85 2.436h-1.725zm3.29 4.395h4.446l-4.56-11.028h-4.615l-4.57 11.028h4.457l.676-1.907h3.48l.685 1.907zM119.938 26.948v-2.305h-10.694v11.082h4.398v-5.19h5.09v-2.022h-5.09v-1.565zM137.218 33.218v-2.57h6.207v-2.135h-6.207V27.14h6.835v-2.5h-11.225v11.084h11.758v-2.507zM124.84 33.01V24.7h-3.975v11.084h10.668V33.01zM159.445 24.762h-4.95l-2.116 2.546-2.102-2.546h-4.951l4.588 5.52-4.588 5.51h4.95l2.103-2.54 2.117 2.54h4.949l-4.595-5.51zM163.253 18.9h.66c.433 0 .721-.019.815-.049a.48.48 0 0 0 .25-.187.597.597 0 0 0-.028-.688.616.616 0 0 0-.337-.178c-.077-.006-.293-.006-.659-.006h-.7v1.107zm-.896 2.578v-4.44h1.887c.48 0 .83.043 1.028.115a.921.921 0 0 1 .518.429c.13.21.193.433.193.705 0 .335-.09.594-.283.813-.197.234-.493.356-.869.416.163.112.353.233.462.373.132.135.309.372.521.722l.536.867h-1.078l-.638-.966c-.236-.348-.39-.566-.48-.66a.667.667 0 0 0-.253-.175c-.098-.046-.252-.061-.463-.061h-.185v1.862h-.896z"/>
        <g transform="translate(159.6 15.393)">
            <mask id="d" fill="#fff">
                <use xlink:href="#c"/>
            </mask>
            <path fill="#FFF" d="M1.553 3.977A3.001 3.001 0 0 1 4.557.983a3 3 0 0 1 2.987 2.994c0 1.647-1.344 3.005-2.987 3.005a3.009 3.009 0 0 1-3.004-3.005m-.776 0c0 2.08 1.675 3.77 3.78 3.77 2.07 0 3.751-1.69 3.751-3.77 0-2.075-1.681-3.77-3.751-3.77a3.77 3.77 0 0 0-3.78 3.77" mask="url(#d)"/>
        </g>
    </g>
</svg>
